<svg xmlns="http://www.w3.org/2000/svg" viewBox="0 0 436 436"><g id="ba8cb63b-97a8-4d4d-a5e2-f688467e08f6" data-name="Design Elements"><circle cx="300" cy="296.16" r="214.5" transform="matrix(1, 0, 0, 1, -82.37, -77.8)" fill="#f0c987" stroke="#350b3d" stroke-miterlimit="10" stroke-width="7"/><path d="M177.24,290.93a122.76,122.76,0,0,1,245.52,0" transform="translate(-82 -78.17)" fill="#f0c987" stroke="#350b3d" stroke-miterlimit="10" stroke-width="7"/></g><g id="abb12e24-7297-4f80-b15b-1db727600975" data-name="[YOUR TEXT HERE]"><path d="M136.66,256.38l0,.09,2.94,2.17,7,5.63-8.49,2.85-3.75,1.08,0,.09L149,270.82l-.78,4.51-22-3.8.88-5.08,11.24-3.61v-.06L129,255.67l.89-5.11,22,3.8-.78,4.51Z" transform="translate(-82 -78.17)" fill="#147547"/><path d="M162.61,226.35a10.69,10.69,0,0,1-2.39,3.34,8,8,0,0,1-3.3,1.87,10.14,10.14,0,0,1-4.12.26,16.23,16.23,0,0,1-4.83-1.5,16.06,16.06,0,0,1-4.23-2.77,10.37,10.37,0,0,1-2.43-3.33,8.27,8.27,0,0,1-.66-3.75,10.91,10.91,0,0,1,1-4,10.76,10.76,0,0,1,2.39-3.33,8.14,8.14,0,0,1,3.3-1.88,10.32,10.32,0,0,1,4.12-.25,16.23,16.23,0,0,1,4.83,1.5,15.82,15.82,0,0,1,4.23,2.77,10.26,10.26,0,0,1,2.43,3.33,8.23,8.23,0,0,1,.66,3.74A10.91,10.91,0,0,1,162.61,226.35Zm-3.91-1.84a4.29,4.29,0,0,0,.16-3.72,6.17,6.17,0,0,0-3.21-2.87l-3-1.42a6.17,6.17,0,0,0-4.26-.65,4.83,4.83,0,0,0-2.93,6.23,6.17,6.17,0,0,0,3.21,2.87l3,1.42a6.15,6.15,0,0,0,4.26.64A4.26,4.26,0,0,0,158.7,224.51Z" transform="translate(-82 -78.17)" fill="#147547"/><path d="M160.36,185.92l5.39-6.46a11,11,0,0,1,3.12-2.65,8.17,8.17,0,0,1,3.6-1,9.69,9.69,0,0,1,3.95.71,17.11,17.11,0,0,1,7.49,6.25,9.5,9.5,0,0,1,1.41,3.76,8,8,0,0,1-.38,3.72,11.14,11.14,0,0,1-2,3.55l-5.39,6.46ZM179.58,191a4.68,4.68,0,0,0,1.26-3.4,5.23,5.23,0,0,0-2.2-3.46L176,181.91a5.29,5.29,0,0,0-3.8-1.54,4.73,4.73,0,0,0-3.13,1.85L166.79,185l10.52,8.77Z" transform="translate(-82 -78.17)" fill="#147547"/><path d="M204.24,172.46l-13.21-18,12.25-9,2.56,3.49-8.34,6.11,2.69,3.67,7.15-5.25,2.55,3.49-7.14,5.24,2.86,3.89,8.33-6.11,2.56,3.48Z" transform="translate(-82 -78.17)" fill="#147547"/><path d="M238.86,151.51l-4.5,1.85-8.51-20.65,9.79-4a7.27,7.27,0,0,1,2.77-.59,6.09,6.09,0,0,1,2.52.53,6.65,6.65,0,0,1,2.12,1.57,8.39,8.39,0,0,1,1.55,2.51,7.6,7.6,0,0,1,.59,4.05,5.77,5.77,0,0,1-1.89,3.45l7.39,6.43-5,2.06L239,142.61l-3.22,1.33Zm0-13.31a2.49,2.49,0,0,0,1.37-1.17,2.13,2.13,0,0,0-.05-1.76l-.54-1.3a2.11,2.11,0,0,0-1.2-1.29,2.49,2.49,0,0,0-1.8.13l-4.73,2,2.22,5.38Z" transform="translate(-82 -78.17)" fill="#147547"/><path d="M275.51,130l-2.73-4.15h-.09l2,14.9-4.53.62-3-22.13,5.26-.72,7.48,9.64,2.73,4.15.1,0-2-14.9,4.54-.62,3,22.13-5.26.72Z" transform="translate(-82 -78.17)" fill="#147547"/><path d="M333.56,142.32l5.89-21.54,14.3,3.91-1.14,4.16-9.6-2.62-1.2,4.38,8.18,2.24L348.85,137l-8.18-2.23-2.41,8.83Z" transform="translate(-82 -78.17)" fill="#147547"/><path d="M376.31,159.16l1.1-5.44-6.58-3.52-3.91,3.93-4.35-2.32,17-16.23,5.3,2.84-4.13,23.12Zm3.8-18.3-.14-.07-6.18,6.31,4.52,2.42Z" transform="translate(-82 -78.17)" fill="#147547"/><path d="M418.7,173.56l-.07-.06-3.43,1.26-8.58,2.77,2.29-8.65,1.18-3.72-.07-.07-10.2,10.84-3.33-3.14,15.3-16.27,3.76,3.53-3.19,11.37.05.05,11.11-3.92,3.77,3.55L412,187.37l-3.33-3.13Z" transform="translate(-82 -78.17)" fill="#147547"/><path d="M424.6,203.42l3.25-2.12,1.57,2.41,12.22-8-1.58-2.41,3.25-2.12,5.8,8.9-3.24,2.12-1.57-2.41-12.22,8,1.57,2.41-3.24,2.12Z" transform="translate(-82 -78.17)" fill="#147547"/><path d="M439.84,230.56l20.84-8.05,1.75,4.54-16.8,6.49,3.06,7.94-4,1.55Z" transform="translate(-82 -78.17)" fill="#147547"/><path d="M450,265.05l8.63-1.34,12.27-9.64.84,5.38-8.06,6.1v.07l9.49,3.19L474,274l-14.58-5.49-8.66,1.35Z" transform="translate(-82 -78.17)" fill="#147547"/><path d="M114,344.34l-1.42-.14q-.09-.46-.09-6.28t0-8.16a8.07,8.07,0,0,1-1.54-2.28,6.17,6.17,0,0,1-.76-2.65s.8-.07,2.39-.13c0-1.29.05-2.78.05-4.46s0-2.55-.05-2.58a14.71,14.71,0,0,1-2.11-4.88c.33-.33,5.66-.5,16-.5,2.58,0,3.86.06,3.86.18a6,6,0,0,1-.43,2.12,8,8,0,0,1-.92,1.81c-.33.45-.53.66-.62.63a13.34,13.34,0,0,0-1.66,0c-1,0-2.58.07-4.69.21a11.39,11.39,0,0,0-3.45.46c-.19.17-.28,1.83-.28,5l0,1.93q4.32-.09,6.62-.09a6.94,6.94,0,0,1,2.3.14,7.83,7.83,0,0,1-1.1,3.77c-.25.46-.4.69-.46.69h-.46c-1,0-2.35.07-4.1.23a12.43,12.43,0,0,0-2.76.37,49.38,49.38,0,0,0-.13,5.75,31.82,31.82,0,0,0,.59,7.63c0,.4-.59.71-1.77.94A16.38,16.38,0,0,1,114,344.34Z" transform="translate(-82 -78.17)" fill="#350b3d"/><path d="M166.44,314.07,166.16,333c0,2.36.05,4.11.14,5.25a11,11,0,0,0,2.37.18,12.12,12.12,0,0,0,2.81-.28,4.42,4.42,0,0,0,2-1,10.77,10.77,0,0,0,1.31-1.34,5.37,5.37,0,0,0,.88-1.86,36.54,36.54,0,0,0,1.1-4.37,1.8,1.8,0,0,1,.67-.05,6.4,6.4,0,0,1,2.12.62c1,.42,1.45.73,1.45.95,0,2.36-.13,5-.37,8-.25,3.31-.55,5-.9,5a10.33,10.33,0,0,1-2.05-.39,17.51,17.51,0,0,1-2.3-.72,70.29,70.29,0,0,1-10.71.74l-2.31.05-1.84-.23a19.21,19.21,0,0,1-.18-4.05l.18-17.62c0-3.59-.08-5.5-.25-5.73a11.46,11.46,0,0,1-.85-1.74,6.59,6.59,0,0,1-.6-1.82c0-.12.34-.29,1-.51a13.43,13.43,0,0,1,4.47-.92,6.55,6.55,0,0,1,2,.14A13.4,13.4,0,0,1,166.44,314.07Z" transform="translate(-82 -78.17)" fill="#350b3d"/><path d="M224.26,332.52c-.43,0-1.75,0-3.95,0a19.94,19.94,0,0,0-3.87.19,67.21,67.21,0,0,0-2.76,11.54,5,5,0,0,1-1.13.05,20.75,20.75,0,0,1-2.32-.14c-1.69-.25-2.53-.46-2.53-.65q0-1.83,3.27-10.71a6.91,6.91,0,0,1-1.38-2.1,6.29,6.29,0,0,1-.78-2.64s1.27-.09,3.81-.18q3.78-10.95,4.28-11.55a7.44,7.44,0,0,1,1.66-.44,13,13,0,0,1,1.88-.3l-.09-.59q-.09-.65-.21-1.41a9.63,9.63,0,0,1-.11-1c0-.09.26-.27.78-.55a10.51,10.51,0,0,1,4.65-1.1c.3,1.81.71,4.11,1.22,6.92s1.49,7.09,3,12.86,2.89,9.78,4.24,12.05l.32.55c0,.15-.29.42-.88.78a11.67,11.67,0,0,1-2.3,1.06,7.81,7.81,0,0,1-2.62.51q-.41,0-2-5.22T224.26,332.52Zm-1.1-4.74c-1-4.42-1.61-6.88-1.7-7.41s-.17-.78-.23-.78-.14.06-.23.19c-.28.52-.79,1.77-1.55,3.77s-1.23,3.37-1.44,4.14C221.41,327.69,223.13,327.72,223.16,327.78Z" transform="translate(-82 -78.17)" fill="#350b3d"/><path d="M267.82,345a1,1,0,0,1-.55-.09q-1.51-1.38-5.66-13.85T257.47,314c0-.06.22-.19.65-.37a8.68,8.68,0,0,1,3.52-.87c1.05,0,1.58,0,1.58.13A105.53,105.53,0,0,0,266,324.79q2.55,9.66,4.39,13.38c.28.56.56.7.83.42a.8.8,0,0,0,.19-.32,73.5,73.5,0,0,0,3.56-9.55,40.26,40.26,0,0,0,2.32-11.84c0-.37-.34-.77-1-1.2a4.55,4.55,0,0,0-1.86-.73,1.37,1.37,0,0,1-.05-.51,6.16,6.16,0,0,1,.23-1.31,2.44,2.44,0,0,1,.41-1,32.48,32.48,0,0,1,8.47-1.15c.46.06.69.13.69.19q0,3.94-2.14,11.84t-4.39,14.08q-2.26,6.18-2.95,6.87Q272.6,345,267.82,345Z" transform="translate(-82 -78.17)" fill="#350b3d"/><path d="M322.43,344.2q-6.85,0-10.15-3.95a15,15,0,0,1-3.29-9.94,20.6,20.6,0,0,1,.69-5.43,17.32,17.32,0,0,1,1.29-3.59,3.59,3.59,0,0,1,1-1.26,10,10,0,0,1,2.9-.21h.87a8.43,8.43,0,0,1,.9-4,6.15,6.15,0,0,1,2.32-2.53,10.32,10.32,0,0,1,5.06-1.52q12.79,0,12.79,16.1a22.21,22.21,0,0,1-1.7,8.92,12.56,12.56,0,0,1-2.53,3.8,11.8,11.8,0,0,1-4.17,2.6A16.42,16.42,0,0,1,322.43,344.2Zm8.41-16.7q0-10.8-6.44-10.81a3.68,3.68,0,0,0-2.82,1.06,3.79,3.79,0,0,0-1,2.69,9.29,9.29,0,0,0,1,3.84,17.14,17.14,0,0,0,2.09,3.5l1,1.29c0,.37-.57.71-1.71,1a10.59,10.59,0,0,1-2.71.48c-.15,0-.47-.29-.94-.87a16.08,16.08,0,0,1-1.66-2.69,14.76,14.76,0,0,1-1.36-3.84,5.77,5.77,0,0,0-1.1,2.81,20.93,20.93,0,0,0-.41,4.09,10.31,10.31,0,0,0,2.16,6.6,6.69,6.69,0,0,0,5.47,2.74Q330.84,339.42,330.84,327.5Z" transform="translate(-82 -78.17)" fill="#350b3d"/><path d="M372,314.12l-.36,12.65q0,12,5.06,12a5,5,0,0,0,2.57-.62,5.56,5.56,0,0,0,1.93-2.28q1.8-3.22,1.8-12.44a93.4,93.4,0,0,0-.51-12.31,3.2,3.2,0,0,1,1.29-.23c2.3,0,3.83.4,4.6,1.2q.42,2.07.41,13.11,0,11.26-3.72,15.45a10.45,10.45,0,0,1-4,2.9,13.73,13.73,0,0,1-5,.83q-5.47,0-7.95-4.16t-2.49-14.38q0-3.85.12-6c.07-1.45.09-2.18.07-2.21a10.28,10.28,0,0,1-.67-1.75,7,7,0,0,1-.39-1.79c0-.13.29-.31.87-.56a11.68,11.68,0,0,1,4.19-.87,9.53,9.53,0,0,1,2,.09A5,5,0,0,1,372,314.12Z" transform="translate(-82 -78.17)" fill="#350b3d"/><path d="M423.53,343.9a13.43,13.43,0,0,1-2.53.3,4.91,4.91,0,0,1-1.75-.28l.28-26.54a8.05,8.05,0,0,1-1.17-2.43,10,10,0,0,1-.58-2.1.79.79,0,0,1,.1-.5,15.54,15.54,0,0,1,2.92-.28c1.88-.11,3.79-.16,5.72-.16a37.62,37.62,0,0,1,5.16.32,27.67,27.67,0,0,1,4.69,1.13,8.2,8.2,0,0,1,3.86,2.55,6.88,6.88,0,0,1,1.43,4.49,7.87,7.87,0,0,1-1.93,5.08,15.52,15.52,0,0,1-5.25,4q0,.74,2.9,6.6t4.6,7.56a.23.23,0,0,1,0,.16c0,.08-.25.23-.74.44a10,10,0,0,1-4.37,1l-1.15-.09q-1-1-3.52-6.72a56.58,56.58,0,0,1-2.78-7,23.16,23.16,0,0,1-4.37,1c.06,6.17.21,9.75.46,10.77A4.23,4.23,0,0,1,423.53,343.9Zm1.52-16.67q5.43-.51,8-2.56t2.55-4a3.09,3.09,0,0,0-2-2.95,11.65,11.65,0,0,0-5-.94,19.14,19.14,0,0,0-3.26.28C425.14,318.33,425.05,321.74,425.05,327.23Z" transform="translate(-82 -78.17)" fill="#350b3d"/><path d="M486.78,316.56a12,12,0,0,0-1.68-.1,18.25,18.25,0,0,0-2.3.19,21.75,21.75,0,0,0-2.8.57,5.67,5.67,0,0,0-2.37,1.22,2.57,2.57,0,0,0-.92,2,2.53,2.53,0,0,0,1.4,2.07,19,19,0,0,0,3.38,1.66c1.32.5,2.65,1.08,4,1.72a9.36,9.36,0,0,1,3.41,2.83,7.28,7.28,0,0,1,1.4,4.49q0,4.64-4.44,7.89a18.5,18.5,0,0,1-11.2,3.24,25,25,0,0,1-5.06-.37c-.28-.27-.42-1.92-.42-4.94a43.35,43.35,0,0,1,.19-5.45c.09-.28.63-.62,1.61-1a7.72,7.72,0,0,1,2.85-.6c0,3.62.38,5.82,1.15,6.58a2.48,2.48,0,0,0,1.75.46,8.29,8.29,0,0,0,5.13-1.65,4.84,4.84,0,0,0,2.18-3.91,3.36,3.36,0,0,0-1.42-2.67,14.07,14.07,0,0,0-3.48-2c-1.36-.57-2.72-1.17-4.07-1.8a10,10,0,0,1-3.45-2.6,5.78,5.78,0,0,1-1.42-3.91q0-3.34,4-6.14t11.66-2.78a4.57,4.57,0,0,1,2,.23,3,3,0,0,1,0,.67,12.93,12.93,0,0,1-.32,2.05A4.54,4.54,0,0,1,486.78,316.56Z" transform="translate(-82 -78.17)" fill="#350b3d"/><path d="M163,415a1.33,1.33,0,0,1,.5-1l13.07-11.5a11.08,11.08,0,0,0,2.3-2.57,2.21,2.21,0,0,1,1.42.75,1.53,1.53,0,0,1,.44,1.06,1.33,1.33,0,0,1-.5,1l-13.09,11.47a10.25,10.25,0,0,0-2.3,2.57,2.23,2.23,0,0,1-1.43-.75A1.5,1.5,0,0,1,163,415Z" transform="translate(-82 -78.17)" fill="#147547"/><path d="M185.56,433.69c.05-2.48,1.22-5.17,3.49-8.08s4.64-4.69,7.06-5.32a7.55,7.55,0,0,1,6.85,1.58,10.82,10.82,0,0,1,2.21,2.29,6.16,6.16,0,0,1,1.11,2.37,2.12,2.12,0,0,1-.3,1.81,1.32,1.32,0,0,1-1.1.48,2,2,0,0,1-1.41-.65,3.94,3.94,0,0,0,.51-2.86,4.48,4.48,0,0,0-1.73-2.49,4.73,4.73,0,0,0-5-.63c-1.84.77-3.82,2.49-5.92,5.18s-3.29,5-3.59,7a4.66,4.66,0,0,0,1.77,4.69,4.8,4.8,0,0,0,3.14,1.08,5,5,0,0,0,3.23-1.33l.32.21a2.24,2.24,0,0,1,.78,1,1.09,1.09,0,0,1-.2,1.08,2.67,2.67,0,0,1-2,.94,7.31,7.31,0,0,1-3-.46,10.8,10.8,0,0,1-3.07-1.7A7.35,7.35,0,0,1,185.56,433.69Z" transform="translate(-82 -78.17)" fill="#147547"/><path d="M227.74,460.75a2.16,2.16,0,0,1-.21.77,1.52,1.52,0,0,1-.47.59.5.5,0,0,1-.55.05l-9.16-4.44a1.54,1.54,0,0,1-.8-.81,1.42,1.42,0,0,1,.1-1.13l7.29-15.1a10.26,10.26,0,0,0,1.06-3.15,2.6,2.6,0,0,1,1.06-.07,4.17,4.17,0,0,1,1.22.43l8.7,4.22a.41.41,0,0,1,.23.34,1.09,1.09,0,0,1-.12.53,2.27,2.27,0,0,1-.59.74,1,1,0,0,1-.74.32,52.45,52.45,0,0,0-7.41-4.52L223.72,447l7.08,3.43a3.07,3.07,0,0,1-.25.74,2.94,2.94,0,0,1-.42.64l-7-3.42-4.14,8.53a60.26,60.26,0,0,0,8.66,3.2A.91.91,0,0,1,227.74,460.75Z" transform="translate(-82 -78.17)" fill="#147547"/><path d="M278.37,473.78q-2-3.16-1.46-8.68c.34-3.7,1.34-6.47,3-8.31a7.57,7.57,0,0,1,6.61-2.39,11.08,11.08,0,0,1,3.1.71,6.45,6.45,0,0,1,2.22,1.39,2.11,2.11,0,0,1,.73,1.69,1.31,1.31,0,0,1-.66,1,2,2,0,0,1-1.53.22,4,4,0,0,0-1.13-2.68,4.46,4.46,0,0,0-2.8-1.15,4.72,4.72,0,0,0-4.57,2.21c-1.14,1.64-1.85,4.17-2.16,7.57s-.05,6,.78,7.79a4.64,4.64,0,0,0,4,3,4.82,4.82,0,0,0,3.22-.8,5,5,0,0,0,2-2.87h.38a2.17,2.17,0,0,1,1.22.45,1.09,1.09,0,0,1,.42,1,2.68,2.68,0,0,1-1.18,1.88,7.44,7.44,0,0,1-2.78,1.25,10.8,10.8,0,0,1-3.51.24A7.32,7.32,0,0,1,278.37,473.78Z" transform="translate(-82 -78.17)" fill="#147547"/><path d="M332,473.67a1.38,1.38,0,0,1-.49,1.27,2.29,2.29,0,0,1-1.21.59,2.39,2.39,0,0,1-1.95-.51,8.25,8.25,0,0,1-1.66-2.23l-1.94-3.56a12.33,12.33,0,0,0-1-1.57,2.87,2.87,0,0,0-1.26-.89,4.26,4.26,0,0,0-2.12-.17l-2.35.27.79,6.19a15.86,15.86,0,0,0,.32,1.73,6.07,6.07,0,0,0,.51,1.52,2.16,2.16,0,0,1-1.39.76,1.54,1.54,0,0,1-1.12-.25,1.45,1.45,0,0,1-.58-1l-2.2-17.27a17.57,17.57,0,0,0-.32-1.75,6.88,6.88,0,0,0-.52-1.59,11,11,0,0,1,4.58-1.29q4.53-.58,6.87.56a5.11,5.11,0,0,1,2.75,4.31,5.9,5.9,0,0,1-.83,4,6.63,6.63,0,0,1-3.26,2.61,3.64,3.64,0,0,1,1.94.9,9,9,0,0,1,1.51,1.92l2.07,3.54a4.72,4.72,0,0,0,.9,1.22,1.12,1.12,0,0,0,.81.34,1.18,1.18,0,0,0,.87-.53A1.8,1.8,0,0,1,332,473.67Zm-11.66-8.23a5.47,5.47,0,0,0,3.6-2,5.26,5.26,0,0,0,1-4,4.85,4.85,0,0,0-1.9-3.66,6.83,6.83,0,0,0-4.68-.67,13,13,0,0,0-1.8.33l1.32,10.32Z" transform="translate(-82 -78.17)" fill="#147547"/><path d="M366.4,463.2a2.13,2.13,0,0,1,.39.69,1.61,1.61,0,0,1,.1.75.52.52,0,0,1-.36.43l-9.59,3.41a1.47,1.47,0,0,1-1.13,0,1.37,1.37,0,0,1-.73-.87l-5.65-15.79a10.5,10.5,0,0,0-1.49-3,2.62,2.62,0,0,1,.68-.81,4.57,4.57,0,0,1,1.17-.56l9.11-3.24a.4.4,0,0,1,.4.08.94.94,0,0,1,.3.45,2.26,2.26,0,0,1,.11,1,1,1,0,0,1-.29.75,53.68,53.68,0,0,0-8.42,2.1l2.78,7.85,7.42-2.64a3,3,0,0,1,.51,1.45l-7.38,2.62,3.17,8.93a59.26,59.26,0,0,0,8.35-3.92A.88.88,0,0,1,366.4,463.2Z" transform="translate(-82 -78.17)" fill="#147547"/><path d="M403.11,445.38a1.9,1.9,0,0,1-.95,1.31,2,2,0,0,1-1.05.33,1.22,1.22,0,0,1-.9-.37l-5-4.35-7.12,4.42,1.45,5.38a4.13,4.13,0,0,0,.4,1,1.11,1.11,0,0,0,.55.52,4.05,4.05,0,0,1-1.06,1c-.84.52-1.46.44-1.88-.23a6,6,0,0,1-.49-1.39l-4.72-20.49a5.64,5.64,0,0,1,1.58-1.47,1.4,1.4,0,0,1,1.81,0l15.94,13.5A4.16,4.16,0,0,0,403.11,445.38ZM394,441.23l-9.68-8.46,3.35,12.39Z" transform="translate(-82 -78.17)" fill="#147547"/><path d="M437.16,415a2.24,2.24,0,0,1-.64,1.48,1.32,1.32,0,0,1-2,0L421.63,404l6.23,15.91a4.07,4.07,0,0,1-.77,1.2,2.21,2.21,0,0,1-.88.58q-7.43-2.2-16.4-5.48l11,10.7a11.66,11.66,0,0,0,2.88,2.23,1.56,1.56,0,0,1-.47,1c-.43.44-.93.39-1.49-.16L409,417.59a26.26,26.26,0,0,0-2.68-2.34,2.56,2.56,0,0,1,.91-1.48,1.82,1.82,0,0,1,1.31-.61l5.86,2L425.68,419q-.56-1.44-4.09-10.22c-.64-1.52-1.17-2.82-1.61-3.9s-.78-2-1-2.64a4.34,4.34,0,0,1,.91-1.3,2.47,2.47,0,0,1,.91-.61.75.75,0,0,1,.74,0l12.94,12.57A11.09,11.09,0,0,0,437.16,415Z" transform="translate(-82 -78.17)" fill="#147547"/><path d="M318.31,402.23H276.69a6.94,6.94,0,1,1-.61-13.87h.74a20.82,20.82,0,1,1,41.36,0h.13a6.94,6.94,0,1,1,.6,13.87Z" transform="translate(-82 -78.17)" fill="#51b848" style="isolation:isolate"/><path d="M293.36,436.57,279,406.86h37l-14.37,29.71a4.56,4.56,0,0,1-8.28,0Z" transform="translate(-82 -78.17)" fill="#350b3d"/></g></svg>